<svg width="25" height="24" viewBox="0 0 25 24" fill="none" xmlns="http://www.w3.org/2000/svg">
<path d="M11.9805 7C11.9805 6.44775 12.4282 6 12.9805 6C13.5327 6 13.9805 6.44775 13.9805 7V11H17.9805C18.5327 11 18.9805 11.4478 18.9805 12C18.9805 12.5522 18.5327 13 17.9805 13H13.9805V17C13.9805 17.5522 13.5327 18 12.9805 18C12.614 18 12.2935 17.8027 12.1194 17.5083C12.0312 17.3594 11.9805 17.1855 11.9805 17V13H7.98047C7.42822 13 6.98047 12.5522 6.98047 12C6.98047 11.7549 7.0686 11.5303 7.21509 11.3564C7.39844 11.1387 7.67334 11 7.98047 11H11.9805V7Z" fill="white"/>
<path fill-rule="evenodd" clip-rule="evenodd" d="M23.9805 12C23.9805 18.0752 19.0557 23 12.9805 23C6.90527 23 1.98047 18.0752 1.98047 12C1.98047 5.9248 6.90527 1 12.9805 1C19.0557 1 23.9805 5.9248 23.9805 12ZM21.9805 12C21.9805 16.9707 17.9509 21 12.9805 21C8.01001 21 3.98047 16.9707 3.98047 12C3.98047 7.0293 8.01001 3 12.9805 3C17.9509 3 21.9805 7.0293 21.9805 12Z" fill="white"/>
</svg>
