<svg width="25" height="24" viewBox="0 0 25 24" fill="none" xmlns="http://www.w3.org/2000/svg">
<path d="M5.47803 1.16406H7.47803V4.16406H10.478V6.16406H7.47803V9.16406H5.47803V6.16406H2.47803V4.16406H5.47803V1.16406Z" fill="white"/>
<path fill-rule="evenodd" clip-rule="evenodd" d="M13.4531 5.98242C13.4458 6.06006 13.4375 6.13721 13.4277 6.21436H21.4839L21.4829 15.8359H19.9829C18.0498 15.8359 16.4829 17.4028 16.4829 19.3359C16.4829 21.269 18.0498 22.8359 19.9829 22.8359C21.916 22.8359 23.4829 21.269 23.4829 19.3359V4.21436H13.395C13.4531 4.57715 13.4834 4.94971 13.4834 5.3291C13.4834 5.54932 13.4731 5.76709 13.4531 5.98242ZM19.9829 17.8359C19.1543 17.8359 18.4829 18.5073 18.4829 19.3359C18.4829 20.1646 19.1543 20.8359 19.9829 20.8359C20.231 20.8359 20.4648 20.7759 20.6709 20.6689C21.1533 20.4194 21.4829 19.9165 21.4829 19.3359V17.8359H19.9829Z" fill="white"/>
<path fill-rule="evenodd" clip-rule="evenodd" d="M8.48389 12.0391C9.20654 11.8242 9.87988 11.4956 10.4839 11.0742V19.3359C10.4839 21.269 8.91699 22.8359 6.98389 22.8359C5.05078 22.8359 3.48389 21.269 3.48389 19.3359C3.48389 17.4028 5.05078 15.8359 6.98389 15.8359H8.48389V12.0391ZM6.98389 17.8359C6.15527 17.8359 5.48389 18.5073 5.48389 19.3359C5.48389 20.1646 6.15527 20.8359 6.98389 20.8359C7.8125 20.8359 8.48389 20.1646 8.48389 19.3359V17.8359H6.98389Z" fill="white"/>
</svg>
