<svg width="25" height="24" viewBox="0 0 25 24" fill="none" xmlns="http://www.w3.org/2000/svg">
<path d="M21.8194 3.16113C21.4287 2.77051 20.7957 2.77051 20.4051 3.16113L12.9806 10.5854L5.55594 3.16113C5.16544 2.77051 4.53226 2.77051 4.14175 3.16113C3.75113 3.55176 3.75113 4.18457 4.14175 4.5752L11.5664 12L4.14163 19.4248C3.75113 19.8154 3.75113 20.4482 4.14163 20.8389C4.53214 21.2295 5.16531 21.2295 5.55582 20.8389L12.9805 13.4141L20.4052 20.8389C20.7957 21.2295 21.4289 21.2295 21.8194 20.8389C22.2099 20.4482 22.2099 19.8149 21.8194 19.4243L14.3948 12L21.8194 4.5752C22.2099 4.18506 22.2099 3.55176 21.8194 3.16113Z" fill="white"/>
</svg>
