<svg width="26" height="24" viewBox="0 0 26 24" fill="none" xmlns="http://www.w3.org/2000/svg">
<path fill-rule="evenodd" clip-rule="evenodd" d="M5.91597 2.00781C4.92186 2.00781 4.11597 2.8137 4.11597 3.80781V14.7637C4.11597 15.7578 4.92185 16.5637 5.91597 16.5637H20.0838C21.0779 16.5637 21.8838 15.7578 21.8838 14.7637V3.80781C21.8838 2.8137 21.0779 2.00781 20.0838 2.00781H5.91597ZM6.11597 14.5637V4.00781H19.8838V14.5637H6.11597Z" fill="white"/>
<path d="M2.0498 19.8926C1.47001 19.8926 1 20.3626 1 20.9424C1 21.5222 1.47001 21.9922 2.04981 21.9922H23.9502C24.53 21.9922 25 21.5222 25 20.9424C25 20.3626 24.53 19.8926 23.9502 19.8926H2.0498Z" fill="white"/>
</svg>
