<svg width="25" height="24" viewBox="0 0 25 24" fill="none" xmlns="http://www.w3.org/2000/svg">
<path fill-rule="evenodd" clip-rule="evenodd" d="M16.9805 12C16.9805 14.209 15.1895 16 12.9805 16C10.7715 16 8.98047 14.209 8.98047 12C8.98047 9.79102 10.7715 8 12.9805 8C15.1895 8 16.9805 9.79102 16.9805 12ZM14.9805 12C14.9805 13.1045 14.085 14 12.9805 14C11.876 14 10.9805 13.1045 10.9805 12C10.9805 10.8955 11.876 10 12.9805 10C14.085 10 14.9805 10.8955 14.9805 12Z" fill="white"/>
<path fill-rule="evenodd" clip-rule="evenodd" d="M23.9805 12C23.9805 18.0752 19.0557 23 12.9805 23C6.90527 23 1.98047 18.0752 1.98047 12C1.98047 5.9248 6.90527 1 12.9805 1C19.0557 1 23.9805 5.9248 23.9805 12ZM21.9805 12C21.9805 16.9707 17.9512 21 12.9805 21C8.00977 21 3.98047 16.9707 3.98047 12C3.98047 7.0293 8.00977 3 12.9805 3C17.9512 3 21.9805 7.0293 21.9805 12Z" fill="white"/>
</svg>
