<svg width="25" height="24" viewBox="0 0 25 24" fill="none" xmlns="http://www.w3.org/2000/svg">
<path d="M8.86617 17.9229C9.04879 17.8843 9.22261 17.7939 9.3647 17.6519L12.9189 14.0977C12.9882 13.8994 12.999 13.6851 12.9511 13.4819C12.9062 13.2891 12.8086 13.106 12.6582 12.9556C12.5542 12.8516 12.434 12.7725 12.3061 12.7188C12.0424 12.6084 11.7446 12.6055 11.479 12.7095L9.65719 14.5308V7.05518C9.65719 6.50293 9.20992 6.05518 8.65719 6.05518C8.10494 6.05518 7.65719 6.50293 7.65719 7.05518V14.5308L5.83541 12.7085C5.44088 12.5547 4.97554 12.6367 4.65718 12.9556C4.54586 13.0664 4.46334 13.1953 4.40963 13.3325C4.31392 13.5781 4.31002 13.8506 4.39693 14.0986L7.95015 17.6519C8.19869 17.9004 8.54586 17.9907 8.86617 17.9229Z" fill="white"/>
<path d="M17.0948 6.07715C16.9122 6.11572 16.7383 6.20605 16.5962 6.34814L13.042 9.90234C12.9727 10.1006 12.962 10.3149 13.0098 10.5181C13.0547 10.7109 13.1524 10.894 13.3028 11.0444C13.4068 11.1484 13.5269 11.2275 13.6548 11.2812C13.9185 11.3916 14.2164 11.3945 14.482 11.2905L16.3038 9.46924V16.9448C16.3038 17.4971 16.751 17.9448 17.3038 17.9448C17.856 17.9448 18.3038 17.4971 18.3038 16.9448V9.46924L20.1255 11.2915C20.5201 11.4453 20.9854 11.3633 21.3038 11.0444C21.4151 10.9336 21.4976 10.8047 21.5513 10.6675C21.647 10.4219 21.6509 10.1494 21.564 9.90137L18.0108 6.34814C17.7622 6.09961 17.4151 6.00928 17.0948 6.07715Z" fill="white"/>
</svg>
