<svg width="25" height="24" viewBox="0 0 25 24" fill="none" xmlns="http://www.w3.org/2000/svg">
<path fill-rule="evenodd" clip-rule="evenodd" d="M8.93262 9.21746V19.0035H11.2636V4.99646H8.93262C8.93262 5.31846 8.83462 5.68946 8.63862 6.10946C8.45662 6.51546 8.16962 6.90046 7.77762 7.26446C7.39962 7.62846 6.91662 7.93646 6.32862 8.18846C5.75462 8.44046 5.08262 8.56646 4.31262 8.56646V10.7295C6.25862 10.7295 7.79862 10.2255 8.93262 9.21746ZM13.8699 12.5893L15.2841 11.1751L17.7591 13.6501L20.2339 11.1752L21.6481 12.5895L19.1733 15.0643L21.6481 17.5391L20.2339 18.9533L17.7591 16.4785L15.2842 18.9534L13.87 17.5392L16.3449 15.0643L13.8699 12.5893Z" fill="white"/>
</svg>
