<svg width="25" height="24" viewBox="0 0 25 24" fill="none" xmlns="http://www.w3.org/2000/svg">
<path d="M1.98047 12.0442C1.98047 7.9231 4.24658 4.33179 7.60059 2.44751L8.56494 4.19995C5.82861 5.7439 3.98047 8.67798 3.98047 12.0442C3.98047 15.3323 5.74365 18.2087 8.37646 19.7791L7.44531 21.5525C4.17676 19.6458 1.98047 16.1013 1.98047 12.0442Z" fill="white"/>
<path d="M18.5146 21.5525C21.7837 19.6458 23.9805 16.1018 23.9805 12.0442C23.9805 7.92798 21.7192 4.3396 18.3716 2.45386L17.4414 4.22583C20.1533 5.77612 21.9805 8.69653 21.9805 12.0442C21.9805 15.3469 20.2017 18.2336 17.5503 19.7996L18.5146 21.5525Z" fill="white"/>
<path d="M16.5854 18.0457C18.6196 16.821 19.9805 14.5916 19.9805 12.0442C19.9805 9.46558 18.5864 7.21265 16.5107 5.99829L15.3462 8.21558C16.627 9.00854 17.4805 10.427 17.4805 12.0442C17.4805 13.6477 16.6416 15.0554 15.3789 15.8523L16.5854 18.0457Z" fill="white"/>
<path d="M10.4746 15.7825C9.27197 14.9749 8.48047 13.6018 8.48047 12.0442C8.48047 10.3767 9.38721 8.92114 10.7344 8.1438L9.52881 5.95288C7.40967 7.15601 5.98047 9.43286 5.98047 12.0442C5.98047 14.5637 7.31104 16.7717 9.30811 18.0046L10.4746 15.7825Z" fill="white"/>
<path d="M12.9805 14.0442C14.085 14.0442 14.9805 13.1487 14.9805 12.0442C14.9805 10.9397 14.085 10.0442 12.9805 10.0442C11.876 10.0442 10.9805 10.9397 10.9805 12.0442C10.9805 13.1487 11.876 14.0442 12.9805 14.0442Z" fill="white"/>
</svg>
