<svg width="25" height="24" viewBox="0 0 25 24" fill="none" xmlns="http://www.w3.org/2000/svg">
<path d="M17.979 11H7.98193V13H17.979V11Z" fill="white"/>
<path fill-rule="evenodd" clip-rule="evenodd" d="M23.9805 12C23.9805 18.0751 19.0556 23 12.9805 23C6.90534 23 1.98047 18.0751 1.98047 12C1.98047 5.92487 6.90534 1 12.9805 1C19.0556 1 23.9805 5.92487 23.9805 12ZM21.9805 12C21.9805 16.9706 17.951 21 12.9805 21C8.00991 21 3.98047 16.9706 3.98047 12C3.98047 7.02944 8.00991 3 12.9805 3C17.951 3 21.9805 7.02944 21.9805 12Z" fill="white"/>
</svg>
