<svg width="25" height="24" viewBox="0 0 25 24" fill="none" xmlns="http://www.w3.org/2000/svg">
<path d="M13.473 7.86974H11.2216V2.62773L10.0052 2.76214V1.33066C10.2561 1.29482 10.4666 1.2545 10.6369 1.2097C10.8072 1.16489 10.9864 1.09545 11.1745 1.00136C11.3627 0.907272 11.524 0.777342 11.6584 0.611569C11.7928 0.445796 11.9026 0.241939 11.9877 0H13.473V7.86974Z" fill="white"/>
<path d="M7.6683 0.415947H6.26371C4.40788 0.415947 2.90344 1.92039 2.90344 3.77621V11.8247C2.90344 13.6805 4.40788 15.1849 6.26371 15.1849H8.84748V13.5048H6.26371C5.3358 13.5048 4.58358 12.7526 4.58358 11.8247V3.77621C4.58358 2.8483 5.3358 2.09608 6.26371 2.09608H7.6683V0.415947Z" fill="white"/>
<path d="M16.3709 2.09608H17.7753C18.7033 2.09608 19.4555 2.8483 19.4555 3.77621V11.8247C19.4555 12.7526 18.7033 13.5048 17.7753 13.5048H13.6603L15.2832 11.8819C15.4964 11.5548 15.4552 11.1075 15.1625 10.8148C14.8695 10.5217 14.4214 10.4808 14.0942 10.6949L11.0382 13.7508C10.7101 14.0789 10.7101 14.6108 11.0382 14.9389L14.0642 17.9649C14.3934 18.2037 14.8603 18.1713 15.1614 17.8702C15.4549 17.5767 15.4931 17.1259 15.2738 16.7984L13.6603 15.1849H17.7753C19.6312 15.1849 21.1356 13.6805 21.1356 11.8247V3.77621C21.1356 1.92039 19.6312 0.415947 17.7753 0.415947H16.3709V2.09608Z" fill="white"/>
<path d="M13.7588 22.3199C13.7588 23.2478 13.0066 24 12.0786 24C11.1507 24 10.3985 23.2478 10.3985 22.3199C10.3985 21.392 11.1507 20.6397 12.0786 20.6397C13.0066 20.6397 13.7588 21.392 13.7588 22.3199Z" fill="white"/>
</svg>
