<svg width="25" height="24" viewBox="0 0 25 24" fill="none" xmlns="http://www.w3.org/2000/svg">
<path d="M1.07495 3.9707C1.07495 2.86621 1.97046 1.9707 3.07495 1.9707H8.1543V3.9707H3.07495V15.0356H8.1543V17.0356H3.07495C1.97046 17.0356 1.07495 16.1401 1.07495 15.0356V3.9707Z" fill="white"/>
<path d="M5.2168 20.0293H8.1543V22.0293H5.2168V20.0293Z" fill="white"/>
<path d="M17.886 8.60645C18.5764 8.60645 19.136 8.04688 19.136 7.35645C19.136 6.66602 18.5764 6.10645 17.886 6.10645C17.1956 6.10645 16.636 6.66602 16.636 7.35645C16.636 8.04688 17.1956 8.60645 17.886 8.60645Z" fill="white"/>
<path fill-rule="evenodd" clip-rule="evenodd" d="M17.886 18.0522C19.8191 18.0522 21.386 16.4854 21.386 14.5522C21.386 12.6191 19.8191 11.0522 17.886 11.0522C15.9529 11.0522 14.386 12.6191 14.386 14.5522C14.386 16.4854 15.9529 18.0522 17.886 18.0522ZM17.886 16.0522C18.7144 16.0522 19.386 15.3809 19.386 14.5522C19.386 13.7236 18.7144 13.0522 17.886 13.0522C17.0576 13.0522 16.386 13.7236 16.386 14.5522C16.386 15.3809 17.0576 16.0522 17.886 16.0522Z" fill="white"/>
<path fill-rule="evenodd" clip-rule="evenodd" d="M10.886 3.9707C10.886 2.86621 11.7815 1.9707 12.886 1.9707H22.886C23.9905 1.9707 24.886 2.86621 24.886 3.9707V19.9707C24.886 21.0752 23.9905 21.9707 22.886 21.9707H12.886C11.7815 21.9707 10.886 21.0752 10.886 19.9707V3.9707ZM12.886 4.9707C12.886 4.41846 13.3337 3.9707 13.886 3.9707H21.886C22.4382 3.9707 22.886 4.41846 22.886 4.9707V18.9707C22.886 19.5229 22.4382 19.9707 21.886 19.9707H13.886C13.3337 19.9707 12.886 19.5229 12.886 18.9707V4.9707Z" fill="white"/>
</svg>
