<svg width="25" height="24" viewBox="0 0 25 24" fill="none" xmlns="http://www.w3.org/2000/svg">
<path d="M2.75627 5.56538L2.11988 4.92898L2.75628 5.56538L5.5847 2.73695C5.62375 2.6979 5.68707 2.6979 5.72613 2.73695L6.67603 3.68686C7.87296 4.88379 9.91953 4.03607 9.91953 2.34335L9.91953 0.999999C9.91953 0.944771 9.9643 0.899999 10.0195 0.899999L14.0195 0.9C14.0748 0.9 14.1195 0.944771 14.1195 1L14.1195 2.34294C14.1195 4.03566 16.1661 4.88337 17.363 3.68644L18.3125 2.73699C18.3515 2.69794 18.4149 2.69794 18.4539 2.73699L21.2823 5.56542C21.3214 5.60447 21.3214 5.66779 21.2823 5.70684L20.3327 6.6565C19.1357 7.85343 19.9835 9.9 21.6762 9.9L23.0195 9.9C23.0748 9.9 23.1195 9.94477 23.1195 10L23.1195 14C23.1195 14.0552 23.0748 14.1 23.0195 14.1L21.6762 14.1C19.9835 14.1 19.1357 16.1466 20.3327 17.3435L21.2825 18.2933C21.3215 18.3324 21.3215 18.3957 21.2825 18.4347L18.454 21.2632C18.415 21.3022 18.3517 21.3022 18.3126 21.2632L17.6762 21.8995L18.3126 21.2632L17.363 20.3136C16.1661 19.1166 14.1195 19.9643 14.1195 21.6571L14.1195 23C14.1195 23.0552 14.0748 23.1 14.0195 23.1L10.0195 23.1C9.9643 23.1 9.91953 23.0552 9.91953 23L9.91953 21.6566C9.91953 19.9639 7.87296 19.1162 6.67603 20.3131L5.72598 21.2632C5.68693 21.3022 5.62362 21.3022 5.58456 21.2632L2.75614 18.4348C2.71708 18.3957 2.71708 18.3324 2.75614 18.2933L3.70597 17.3435C4.9029 16.1466 4.05519 14.1 2.36247 14.1L1.01953 14.1C0.964303 14.1 0.91953 14.0552 0.91953 14L0.91953 10C0.91953 9.94477 0.964304 9.9 1.01953 9.9L2.36247 9.9C4.05519 9.9 4.9029 7.85343 3.70597 6.6565L2.75628 5.7068C2.71722 5.66775 2.71723 5.60443 2.75627 5.56538ZM8.11953 12C8.11953 14.1539 9.86562 15.9 12.0195 15.9C14.1734 15.9 15.9195 14.1539 15.9195 12C15.9195 9.84609 14.1734 8.1 12.0195 8.1C9.86562 8.1 8.11953 9.84609 8.11953 12Z" stroke="white" stroke-width="1.8"/>
</svg>
