<svg width="25" height="24" viewBox="0 0 25 24" fill="none" xmlns="http://www.w3.org/2000/svg">
<path d="M12.6243 2.15477C12.4417 2.19335 12.2678 2.28368 12.1257 2.42577L8.57153 5.97997C8.43677 6.3662 8.52319 6.81298 8.83228 7.12206C9.15112 7.44091 9.61694 7.52294 10.0115 7.36815L11.8333 5.54686V13.0224C11.8333 13.5747 12.2805 14.0224 12.8333 14.0224C13.3855 14.0224 13.8333 13.5747 13.8333 13.0224V5.54686L15.655 7.36913C16.0496 7.52294 16.5149 7.44091 16.8333 7.12206C17.1428 6.81298 17.2292 6.36571 17.0935 5.97899L13.5403 2.42577C13.2917 2.17723 12.9446 2.0869 12.6243 2.15477Z" fill="white"/>
<path d="M5.16821 8.07762C4.61597 8.07762 4.16821 8.52538 4.16821 9.07762V20.8672C4.16821 21.4194 4.61597 21.8672 5.16821 21.8672H20.7927C21.345 21.8672 21.7927 21.4194 21.7927 20.8672V9.07762C21.7927 8.52538 21.345 8.07762 20.7927 8.07762H17.8547V10.0776H19.7927V19.8672H6.16821V10.0776H7.81079V8.07762H5.16821Z" fill="white"/>
</svg>
