<svg width="25" height="24" viewBox="0 0 25 24" fill="none" xmlns="http://www.w3.org/2000/svg">
<path d="M8.2924 11.7842C8.27697 11.8008 8.26033 11.8189 8.24241 11.8384C8.02383 12.0764 7.61625 12.5201 6.90951 12.9291C6.14952 13.3689 5.01459 13.7826 3.38233 13.7714L3.37061 15.4832C5.31803 15.4966 6.75181 14.9982 7.76695 14.4107C8.70418 13.8683 9.26021 13.2616 9.49668 13.0035C9.51488 12.9837 9.53172 12.9653 9.54614 12.9498C9.71252 12.7708 9.87841 12.5939 10.0464 12.4148C11.2195 11.1637 12.4935 9.80495 14.7358 6.89449C16.3586 4.78809 18.5891 4.3104 19.0981 4.29767H19.6678L18.3415 5.62394C18.1182 5.96689 18.157 6.43072 18.4579 6.73167C18.7397 7.01346 19.1643 7.06543 19.4988 6.88755L22.3394 4.04698C22.6736 3.71272 22.6736 3.17079 22.3394 2.83653L19.6123 0.109461C19.2761 -0.075791 18.845 -0.0259024 18.56 0.259127C18.2632 0.555855 18.2214 1.01093 18.4343 1.35236L19.6678 2.58584H19.0815L19.0739 2.58597C18.1401 2.60265 15.3744 3.26074 13.3797 5.84974C11.188 8.69453 9.95911 10.0051 8.79642 11.2451L8.7949 11.2468C8.62693 11.4259 8.46033 11.6036 8.2924 11.7842Z" fill="white"/>
<path d="M8.24265 5.38885C8.26053 5.40832 8.27714 5.4264 8.29255 5.44298C8.46048 5.62361 8.62708 5.80129 8.79505 5.98043L8.79621 5.98166C9.20566 6.41833 9.62368 6.86414 10.0887 7.38224L11.3808 6.25901C10.897 5.71946 10.4655 5.25927 10.0468 4.81275C9.87886 4.63362 9.71267 4.45638 9.54629 4.27741C9.53186 4.2619 9.51557 4.24412 9.49737 4.22426C9.2609 3.96622 8.70433 3.35888 7.7671 2.81649C6.75196 2.22901 5.31818 1.73059 3.37075 1.74393L3.38248 3.45573C5.01474 3.44455 6.14967 3.85828 6.90966 4.2981C7.6164 4.70711 8.02407 5.1509 8.24265 5.38885Z" fill="white"/>
<path d="M13.3799 11.3774C13.2856 11.2551 13.1932 11.1356 13.1024 11.0188L14.3962 9.89408C14.507 10.0363 14.6202 10.1824 14.7359 10.3327C16.3588 12.4391 18.5892 12.9168 19.0982 12.9295H19.6679L18.3417 11.6032C18.1183 11.2603 18.1571 10.7965 18.4581 10.4955C18.7399 10.2137 19.1645 10.1618 19.4989 10.3396L22.3395 13.1802C22.6738 13.5145 22.6738 14.0564 22.3395 14.3907L19.6125 17.1177C19.2763 17.303 18.8452 17.2531 18.5601 16.9681C18.2634 16.6713 18.2215 16.2163 18.4344 15.8748L19.6679 14.6413H19.0817L19.074 14.6412C18.1403 14.6245 15.3745 13.9664 13.3799 11.3774Z" fill="white"/>
<path d="M14.6923 22.2882C14.6923 23.2336 13.9259 24 12.9805 24C12.035 24 11.2686 23.2336 11.2686 22.2882C11.2686 21.3427 12.035 20.5763 12.9805 20.5763C13.9259 20.5763 14.6923 21.3427 14.6923 22.2882Z" fill="white"/>
</svg>
