<svg width="25" height="24" viewBox="0 0 25 24" fill="none" xmlns="http://www.w3.org/2000/svg">
<path d="M3.85774 17.3989C4.63215 18.6399 5.66902 19.696 6.89582 20.4927C7.35896 20.7935 7.97834 20.6619 8.27912 20.1987C8.57991 19.7356 8.44831 19.1162 7.98518 18.8154C7.00373 18.178 6.17414 17.3332 5.55476 16.3403C4.93537 15.3477 4.54133 14.231 4.40046 13.0693C4.25959 11.9075 4.37532 10.7292 4.73933 9.61694C5.10334 8.50488 5.7071 7.48632 6.50764 6.63281C7.30818 5.77929 8.2862 5.11181 9.37287 4.67749C10.4595 4.24316 11.628 4.05249 12.7965 4.11889C13.9647 4.1853 15.1043 4.50732 16.1346 5.06201C17.0338 5.54614 17.8306 6.19726 18.4835 6.979H16.2423C16.0806 7.01098 15.9346 7.0874 15.8172 7.19506C15.637 7.36035 15.5238 7.59961 15.5238 7.86572C15.5238 8.31689 15.8492 8.69067 16.2745 8.75854H20.8072C20.835 8.75854 20.8621 8.75805 20.8885 8.75683L20.9407 8.75341H21.6898V8.02758C21.692 8.00366 21.6937 7.97949 21.6949 7.95483C21.6961 7.92651 21.6968 7.8977 21.6968 7.86865V3.29223C21.6124 2.88647 21.2459 2.58105 20.8067 2.58105C20.6612 2.58105 20.5238 2.6145 20.4019 2.67407C20.3114 2.7185 20.2296 2.7771 20.1593 2.84692C20.1229 2.88305 20.0897 2.92212 20.0601 2.96362C20.0179 3.02295 19.983 3.08764 19.9564 3.15649C19.94 3.19922 19.9268 3.24365 19.9173 3.28906V5.57763C19.1209 4.65332 18.1605 3.88134 17.0826 3.30102C15.7947 2.60766 14.3704 2.20532 12.91 2.12207C11.4495 2.03906 9.98884 2.27758 8.63044 2.82031C7.27229 3.36328 6.04963 4.19751 5.0489 5.2644C4.04817 6.3313 3.29377 7.60473 2.83845 8.99487C2.38337 10.385 2.23884 11.8579 2.41487 13.3101C2.59114 14.7622 3.08357 16.158 3.85774 17.3989Z" fill="white"/>
<path d="M12.6168 15.2441V21.7681H14.1707V12.4302H12.6168C12.6168 12.6448 12.5513 12.8921 12.4207 13.1721C12.3665 13.293 12.2984 13.4111 12.2164 13.5264C12.1146 13.6692 11.9913 13.8079 11.8468 13.9421C11.5948 14.1848 11.2728 14.3901 10.8807 14.5581C10.6566 14.6565 10.41 14.7261 10.1409 14.7668C9.95076 14.7957 9.74934 14.8101 9.53669 14.8101V16.2519C10.8341 16.2519 11.8607 15.916 12.6168 15.2441Z" fill="white"/>
<path d="M15.9007 12.5561L15.2427 17.624H16.6988C16.9041 17.3721 17.1514 17.176 17.4407 17.0361C17.7301 16.8867 18.0008 16.812 18.2528 16.812C18.4766 16.812 18.6961 16.8586 18.9107 16.9521C19.0599 17.0171 19.1978 17.0998 19.3248 17.2012C19.3802 17.2454 19.4337 17.293 19.4847 17.344C19.6622 17.512 19.8021 17.7126 19.9046 17.946C20.0074 18.1702 20.0587 18.4221 20.0587 18.7021C20.0587 18.9727 20.012 19.2248 19.9188 19.458C19.8255 19.6914 19.6947 19.8967 19.5267 20.074C19.368 20.2422 19.1768 20.3774 18.9527 20.48C18.7381 20.5735 18.5047 20.6201 18.2528 20.6201C17.9073 20.6201 17.5806 20.4895 17.2728 20.228C16.9739 19.9575 16.7501 19.5747 16.6007 19.0801H14.9627C15.1773 20.0227 15.5787 20.7273 16.1668 21.1941C16.764 21.6606 17.4547 21.894 18.2388 21.894C18.8267 21.894 19.3353 21.8054 19.7647 21.6282C20.0455 21.5061 20.2943 21.3621 20.5111 21.196C20.6258 21.1082 20.7318 21.0142 20.8287 20.9141C21.1087 20.6155 21.3187 20.2747 21.4588 19.8921C21.5987 19.5095 21.6688 19.1128 21.6688 18.7021C21.6688 18.2634 21.5848 17.8528 21.4168 17.47C21.2581 17.0781 21.034 16.7373 20.7447 16.448C20.5692 16.2666 20.3717 16.1091 20.1519 15.9753C20.0213 15.8957 19.8829 15.8247 19.7366 15.762C19.3541 15.594 18.9342 15.51 18.4766 15.51C18.3367 15.51 18.1268 15.5242 17.8468 15.552C17.576 15.5801 17.2821 15.6594 16.9647 15.79L17.0347 15.2441C17.1002 14.7866 17.1607 14.3154 17.2166 13.8301H21.1646V12.5561H15.9007Z" fill="white"/>
</svg>
