<svg width="25" height="24" viewBox="0 0 25 24" fill="none" xmlns="http://www.w3.org/2000/svg">
<path d="M22.157 17.4091C21.3826 18.65 20.3457 19.7062 19.1189 20.5028C18.6558 20.8036 18.0364 20.672 17.7356 20.2089C17.4348 19.7457 17.5664 19.1263 18.0295 18.8256C19.011 18.1881 19.8406 17.3434 20.46 16.3505C21.0793 15.3578 21.4734 14.2411 21.6143 13.0795C21.7551 11.9176 21.6394 10.7394 21.2754 9.62707C20.9114 8.51501 20.3076 7.49646 19.5071 6.64294C18.7065 5.78942 17.7285 5.12194 16.6418 4.68762C15.5552 4.25329 14.3867 4.06262 13.2183 4.12902C12.05 4.19543 10.9104 4.51745 9.88013 5.07214C8.98096 5.55627 8.18408 6.20739 7.53125 6.98913H9.77246C9.93408 7.02111 10.0801 7.09753 10.1975 7.2052C10.3777 7.37048 10.491 7.60974 10.491 7.87585C10.491 8.32702 10.1655 8.7008 9.74023 8.76867H5.20752C5.16064 8.76867 5.11621 8.76696 5.07397 8.76355H4.32495V8.03772C4.32007 7.9862 4.31787 7.93298 4.31787 7.87878V3.30236C4.40234 2.8966 4.7688 2.59118 5.20801 2.59118C5.35352 2.59118 5.49097 2.62463 5.61279 2.6842C5.70337 2.72863 5.78516 2.78723 5.85547 2.85705C5.89185 2.89318 5.92505 2.93225 5.95459 2.97375C6.02295 3.06994 6.07227 3.18029 6.09741 3.29919V5.58776C6.8938 4.66345 7.85425 3.89148 8.93213 3.31115C10.22 2.61779 11.6443 2.21545 13.1047 2.1322C14.5652 2.04919 16.0259 2.28772 17.3843 2.83044C18.7424 3.37341 19.9651 4.20764 20.9658 5.27453C21.9666 6.34143 22.7209 7.61486 23.1763 9.005C23.6313 10.3951 23.7759 11.868 23.5999 13.3202C23.4236 14.7723 22.9312 16.1681 22.157 17.4091Z" fill="white"/>
<path d="M5.36841 15.234V21.7579H6.92236V12.42H5.36841C5.36841 12.6346 5.30298 12.882 5.17236 13.162C5.05103 13.4325 4.85962 13.6893 4.59839 13.932C4.34644 14.1747 4.02441 14.38 3.63232 14.548C3.24976 14.7159 2.80176 14.7999 2.28833 14.7999V16.2418C3.58569 16.2418 4.6123 15.9059 5.36841 15.234Z" fill="white"/>
<path d="M8.65234 12.546L7.99438 17.6139H9.45044C9.65576 17.3619 9.90308 17.1659 10.1924 17.026C10.4817 16.8766 10.7524 16.8019 11.0044 16.8019C11.2283 16.8019 11.4478 16.8485 11.6624 16.942C11.877 17.0353 12.0684 17.1659 12.2363 17.3339C12.4138 17.5018 12.5537 17.7025 12.6562 17.9359C12.759 18.16 12.8103 18.412 12.8103 18.692C12.8103 18.9625 12.7637 19.2147 12.6704 19.4479C12.5771 19.6813 12.4463 19.8866 12.2783 20.0638C12.1196 20.2321 11.9285 20.3673 11.7043 20.4698C11.4897 20.5634 11.2563 20.61 11.0044 20.61C10.6589 20.61 10.3323 20.4794 10.0244 20.2179C9.88062 20.0878 9.75415 19.9315 9.64502 19.7491C9.52734 19.5529 9.42969 19.3265 9.35229 19.0699H7.71436C7.92896 20.0126 8.33032 20.7172 8.91846 21.184C9.51562 21.6505 10.2063 21.8839 10.9905 21.8839C11.5784 21.8839 12.0869 21.7953 12.5164 21.618C12.9458 21.4313 13.3003 21.1932 13.5803 20.9039C13.8604 20.6053 14.0703 20.2645 14.2104 19.882C14.3503 19.4994 14.4204 19.1027 14.4204 18.692C14.4204 18.2533 14.3364 17.8426 14.1685 17.4598C14.0098 17.068 13.7856 16.7272 13.4963 16.4379C13.2163 16.1486 12.8804 15.92 12.4883 15.7518C12.3154 15.6759 12.1348 15.6171 11.9465 15.5756C11.7183 15.525 11.479 15.4999 11.2283 15.4999C11.1621 15.4999 11.0801 15.503 10.9824 15.5094C10.8738 15.5162 10.7458 15.5272 10.5984 15.5419C10.3276 15.5699 10.0337 15.6493 9.71631 15.7799L9.78638 15.234C9.85181 14.7765 9.91235 14.3053 9.96826 13.8199H13.9163V12.546H8.65234Z" fill="white"/>
</svg>
