<svg width="25" height="24" viewBox="0 0 25 24" fill="none" xmlns="http://www.w3.org/2000/svg">
<path fill-rule="evenodd" clip-rule="evenodd" d="M6.36169 9.29321C6.30631 9.29503 6.2507 9.29594 6.19488 9.29594C5.54774 9.29594 4.92932 9.173 4.36169 8.9492V13.0302L2.57148 16.2634L0.927612 19.2322H4.32116H8.35656V19.4109V19.9159C8.35656 21.9389 9.99653 23.5789 12.0195 23.5789C14.0425 23.5789 15.6825 21.9389 15.6825 19.9159V19.4109V19.2322H19.7179H23.2937L21.422 16.1853L19.4481 12.972V7.42114C19.4481 3.55515 16.3141 0.421143 12.4481 0.421143H11.3617C10.7563 0.421143 10.1688 0.498006 9.60846 0.642506C10.1426 1.14182 10.5672 1.75693 10.8422 2.4478C11.013 2.43018 11.1863 2.42114 11.3617 2.42114H12.4481C15.2095 2.42114 17.4481 4.65972 17.4481 7.42114V11.53V13.5273V13.53H17.4437L17.4481 13.5372L18.4893 15.2322L18.6723 15.53L19.7179 17.2322H17.3707H6.60729H4.32116L5.26366 15.53L5.42859 15.2322L6.36169 13.547L6.37109 13.53H6.36169V13.5248V11.53V9.29321ZM10.3566 19.9159C10.3566 20.5728 10.7374 21.1407 11.2904 21.4109C11.5105 21.5185 11.758 21.5789 12.0195 21.5789C12.2811 21.5789 12.5285 21.5185 12.7487 21.4109C13.3016 21.1407 13.6825 20.5728 13.6825 19.9159V19.4109H12.3566H11.6825H10.3566V19.9159Z" fill="white"/>
<circle cx="6.19482" cy="4.2959" r="3" fill="white"/>
</svg>
